{
	"asset":{
		"generator":"Khronos glTF Blender I/O v4.2.83",
		"version":"2.0"
	},
	"scene":0,
	"scenes":[
		{
			"name":"Scene",
			"nodes":[
				0
			]
		}
	],
	"nodes":[
		{
			"mesh":0,
			"name":"Enterprise"
		}
	],
	"materials":[
		{
			"doubleSided":true,
			"name":"Material",
			"pbrMetallicRoughness":{
				"baseColorFactor":[
					0.800000011920929,
					0.800000011920929,
					0.800000011920929,
					1
				],
				"metallicFactor":0,
				"roughnessFactor":0.5
			}
		}
	],
	"meshes":[
		{
			"name":"Cylinder.003",
			"primitives":[
				{
					"attributes":{
						"POSITION":0,
						"NORMAL":1,
						"TEXCOORD_0":2
					},
					"indices":3,
					"material":0
				}
			]
		}
	],
	"accessors":[
		{
			"bufferView":0,
			"componentType":5126,
			"count":3905,
			"max":[
				2.27112078666687,
				3.1232049465179443,
				4.866311073303223
			],
			"min":[
				-2.27112078666687,
				0.8089104890823364,
				-4.7899274826049805
			],
			"type":"VEC3"
		},
		{
			"bufferView":1,
			"componentType":5126,
			"count":3905,
			"type":"VEC3"
		},
		{
			"bufferView":2,
			"componentType":5126,
			"count":3905,
			"type":"VEC2"
		},
		{
			"bufferView":3,
			"componentType":5123,
			"count":16116,
			"type":"SCALAR"
		}
	],
	"bufferViews":[
		{
			"buffer":0,
			"byteLength":46860,
			"byteOffset":0,
			"target":34962
		},
		{
			"buffer":0,
			"byteLength":46860,
			"byteOffset":46860,
			"target":34962
		},
		{
			"buffer":0,
			"byteLength":31240,
			"byteOffset":93720,
			"target":34962
		},
		{
			"buffer":0,
			"byteLength":32232,
			"byteOffset":124960,
			"target":34963
		}
	],
	"buffers":[
		{
			"byteLength":157192,
			"uri":"USSEnterprise.bin"
		}
	]
}
